<svg xmlns="http://www.w3.org/2000/svg" viewBox="0 0 100 100">
  <path d="M 50 50 L 50 5 A 45 45 0 0 1 86.6 26.7 Z" fill="#3b82f6" stroke="#ffffff" stroke-width="2"/>
  <path d="M 50 50 L 86.6 26.7 A 45 45 0 0 1 86.6 73.3 Z" fill="#10b981" stroke="#ffffff" stroke-width="2"/>
  <path d="M 50 50 L 86.6 73.3 A 45 45 0 0 1 13.4 73.3 Z" fill="#f59e0b" stroke="#ffffff" stroke-width="2"/>
  <path d="M 50 50 L 13.4 73.3 A 45 45 0 0 1 50 5 Z" fill="#8b5cf6" stroke="#ffffff" stroke-width="2"/>
  <circle cx="50" cy="50" r="8" fill="#ffffff"/>
  <rect x="47" y="45" width="6" height="1.5" fill="#64748b" rx="0.5"/>
  <rect x="47" y="48" width="6" height="1.5" fill="#64748b" rx="0.5"/>
  <rect x="47" y="51" width="6" height="1.5" fill="#64748b" rx="0.5"/>
  <rect x="47" y="54" width="6" height="1.5" fill="#64748b" rx="0.5"/>
</svg>